<?xml version="1.0" encoding="UTF-8" standalone="no"?>
<!DOCTYPE svg PUBLIC "-//W3C//DTD SVG 1.1//EN" "http://www.w3.org/Graphics/SVG/1.1/DTD/svg11.dtd">
<svg width="100%" height="100%" viewBox="0 0 300 320" version="1.1" xmlns="http://www.w3.org/2000/svg" xmlns:xlink="http://www.w3.org/1999/xlink" xml:space="preserve" xmlns:serif="http://www.serif.com/" style="fill-rule:evenodd;clip-rule:evenodd;stroke-linejoin:round;stroke-miterlimit:2;">
    <g id="Plan-de-travail1" serif:id="Plan de travail1" transform="matrix(1.53336,0,0,1.64616,5.70866,3.38131)">
        <rect x="-3.723" y="-2.054" width="195.649" height="194.391" style="fill:none;"/>
        <g transform="matrix(0.619685,0,0,0.577221,33.8696,38.8117)">
            <circle cx="98.5" cy="98.5" r="98.5" style="fill:rgb(251,76,32);"/>
        </g>
        <g transform="matrix(0.619685,0,0,0.577221,33.8696,38.8117)">
            <rect x="72" y="72" width="53" height="53" style="fill:none;fill-rule:nonzero;"/>
        </g>
        <g transform="matrix(1.37627,0,0,1.28196,77.017,74.5155)">
            <path d="M12.152,11.484C12.102,11.847 12.066,12.227 12.044,12.624C12.031,12.684 12.025,12.746 12.025,12.809L12.025,21.372C8.64,21.796 7.062,23.906 6.573,25.594C5.396,25.36 3.631,25.279 1.858,26.636C0.88,27.385 0.383,28.398 0.159,29.379C-0.153,30.748 0.081,32.035 0.129,32.268C0.216,32.694 0.6,33 1.045,33L25.038,33C25.507,33 25.903,32.661 25.965,32.208C25.965,32.208 26.38,29.021 24.368,26.841C24.354,26.826 24.34,26.812 24.325,26.798C22.676,25.232 20.772,25.425 19.644,25.75C18.953,24.298 17.237,21.614 13.893,21.322L13.893,13.98C16.611,13.851 18.524,13.141 19.791,11.878C21.2,10.472 21.855,8.334 21.794,5.329C21.784,4.828 21.362,4.43 20.849,4.436C18.167,4.467 16.03,5.105 14.526,6.471C14.215,6.754 13.929,7.07 13.67,7.42C13.293,5.22 12.484,3.574 11.248,2.396C9.472,0.703 6.766,-0.069 2.969,0.005C2.455,0.015 2.047,0.426 2.053,0.927C2.093,4.149 2.889,6.72 4.615,8.527C6.22,10.206 8.651,11.257 12.152,11.484ZM12.75,23.135C9.496,23.35 8.267,25.49 8.267,26.724C8.267,27.008 8.132,27.276 7.9,27.448C7.669,27.621 7.368,27.678 7.087,27.603C6.427,27.428 4.718,26.763 3.012,28.069C2.244,28.657 1.985,29.523 1.901,30.263C1.863,30.599 1.861,30.914 1.875,31.178L24.14,31.178C24.112,30.365 23.906,29.082 22.999,28.082C21.469,26.657 19.587,27.717 19.587,27.717C19.339,27.855 19.038,27.875 18.773,27.771C18.507,27.666 18.305,27.449 18.226,27.18C18.226,27.18 17.062,23.118 13.29,23.118L13.234,23.118C13.147,23.144 13.055,23.158 12.959,23.158C12.887,23.158 12.817,23.15 12.75,23.135ZM19.92,6.298C19.853,8.211 19.423,9.638 18.454,10.605C17.481,11.575 16.002,12.046 13.953,12.155C14.146,10.172 14.759,8.75 15.8,7.804C16.817,6.88 18.215,6.43 19.92,6.298ZM3.956,1.826C6.634,1.883 8.614,2.433 9.942,3.699C11.275,4.969 11.912,6.92 12.028,9.649C9.251,9.434 7.28,8.643 5.982,7.285C4.707,5.95 4.103,4.098 3.956,1.826Z"/>
        </g>
        <g transform="matrix(0.552517,0,0,0.514656,7.31931,-1.20291)">
            <path d="M87.098,21.962C85.972,21.162 84.412,21.427 83.612,22.552C82.813,23.678 83.077,25.239 84.203,26.038L87.098,21.962ZM99.239,33.649L101.355,34.98L102.613,32.979L100.686,31.611L99.239,33.649ZM89.256,44.826C88.521,45.995 88.872,47.539 90.041,48.274C91.21,49.009 92.753,48.657 93.488,47.488L89.256,44.826ZM84.203,26.038L97.791,35.688L100.686,31.611L87.098,21.962L84.203,26.038ZM97.122,32.318L89.256,44.826L93.488,47.488L101.355,34.98L97.122,32.318ZM5.359,125.25C18.949,86.501 48.731,55.353 86.594,39.918L84.707,35.288C45.524,51.261 14.707,83.489 0.641,123.596L5.359,125.25Z" style="fill-rule:nonzero;"/>
        </g>
        <g transform="matrix(-0.568951,0.0326646,-0.0350676,-0.529964,190.966,188.037)">
            <path d="M87.098,21.962C85.972,21.162 84.412,21.427 83.612,22.552C82.813,23.678 83.077,25.239 84.203,26.038L87.098,21.962ZM99.239,33.649L101.355,34.98L102.613,32.979L100.686,31.611L99.239,33.649ZM89.256,44.826C88.521,45.995 88.872,47.539 90.041,48.274C91.21,49.009 92.753,48.657 93.488,47.488L89.256,44.826ZM84.203,26.038L97.791,35.688L100.686,31.611L87.098,21.962L84.203,26.038ZM97.122,32.318L89.256,44.826L93.488,47.488L101.355,34.98L97.122,32.318ZM5.359,125.25C18.949,86.501 48.731,55.353 86.594,39.918L84.707,35.288C45.524,51.261 14.707,83.489 0.641,123.596L5.359,125.25Z" style="fill-rule:nonzero;"/>
        </g>
        <g transform="matrix(0.652162,0,0,0.607473,4.92031,-1.17355)">
            <path d="M148.5,13C148.5,18.247 144.247,22.5 139,22.5C133.753,22.5 129.5,18.247 129.5,13C129.5,7.753 133.753,3.5 139,3.5C144.247,3.5 148.5,7.753 148.5,13ZM145.812,24.075C149.525,21.786 152,17.682 152,13C152,5.82 146.18,0 139,0C131.82,0 126,5.82 126,13C126,17.682 128.475,21.786 132.188,24.075C123.372,26.943 117,35.227 117,45L120.5,45C120.5,34.783 128.783,26.5 139,26.5C149.217,26.5 157.5,34.783 157.5,45L161,45C161,35.227 154.628,26.943 145.812,24.075Z"/>
        </g>
        <g transform="matrix(0.652162,0,0,0.607473,4.92031,164.363)">
            <path d="M148.5,13C148.5,18.247 144.247,22.5 139,22.5C133.753,22.5 129.5,18.247 129.5,13C129.5,7.753 133.753,3.5 139,3.5C144.247,3.5 148.5,7.753 148.5,13ZM145.812,24.075C149.525,21.786 152,17.682 152,13C152,5.82 146.18,0 139,0C131.82,0 126,5.82 126,13C126,17.682 128.475,21.786 132.188,24.075C123.372,26.943 117,35.227 117,45L120.5,45C120.5,34.783 128.783,26.5 139,26.5C149.217,26.5 157.5,34.783 157.5,45L161,45C161,35.227 154.628,26.943 145.812,24.075Z"/>
        </g>
    </g>
</svg>
