<?xml version="1.0" encoding="UTF-8" standalone="no"?>
<!DOCTYPE svg PUBLIC "-//W3C//DTD SVG 1.1//EN" "http://www.w3.org/Graphics/SVG/1.1/DTD/svg11.dtd">
<svg width="100%" height="100%" viewBox="0 0 450 300" version="1.1" xmlns="http://www.w3.org/2000/svg" xmlns:xlink="http://www.w3.org/1999/xlink" xml:space="preserve" xmlns:serif="http://www.serif.com/" style="fill-rule:evenodd;clip-rule:evenodd;stroke-linejoin:round;stroke-miterlimit:2;">
    <g transform="matrix(1,0,0,1,-13.4314,-66.5176)">
        <circle cx="237.181" cy="226.667" r="66.282" style="fill:rgb(251,76,32);"/>
    </g>
    <g transform="matrix(1,0,0,1,-13.9314,-65.0175)">
        <path d="M386.969,182.67C386.969,182.342 386.918,182.041 386.816,181.769C386.714,181.486 386.566,181.242 386.374,181.038C386.181,180.834 385.949,180.676 385.677,180.562C385.405,180.438 385.099,180.375 384.759,180.375C384.419,180.375 384.101,180.438 383.807,180.562C383.523,180.676 383.28,180.834 383.076,181.038C382.872,181.242 382.707,181.486 382.583,181.769C382.469,182.041 382.413,182.342 382.413,182.67C382.413,182.999 382.469,183.305 382.583,183.588C382.707,183.872 382.872,184.115 383.076,184.319C383.28,184.523 383.523,184.688 383.807,184.812C384.101,184.926 384.419,184.982 384.759,184.982C385.099,184.982 385.405,184.926 385.677,184.812C385.949,184.688 386.181,184.523 386.374,184.319C386.566,184.104 386.714,183.86 386.816,183.588C386.918,183.305 386.969,182.999 386.969,182.67ZM388.55,182.704C388.55,183.237 388.459,183.73 388.278,184.183C388.096,184.637 387.841,185.028 387.513,185.356C387.184,185.685 386.787,185.946 386.323,186.138C385.869,186.32 385.371,186.41 384.827,186.41C384.543,186.41 384.271,186.376 384.011,186.308C383.761,186.252 383.529,186.172 383.314,186.07C383.098,185.957 382.911,185.838 382.753,185.713C382.594,185.577 382.475,185.441 382.396,185.305L382.396,185.492C382.407,185.549 382.413,185.606 382.413,185.662L382.413,189.657L380.951,189.657L380.951,179.134L382.362,179.134C382.362,179.27 382.367,179.44 382.379,179.644C382.401,179.837 382.413,180.013 382.413,180.171C382.503,180.035 382.622,179.899 382.77,179.763C382.928,179.616 383.11,179.486 383.314,179.372C383.529,179.248 383.767,179.146 384.028,179.066C384.288,178.987 384.577,178.947 384.895,178.947C385.439,178.947 385.932,179.038 386.374,179.219C386.827,179.389 387.212,179.639 387.53,179.967C387.858,180.285 388.108,180.676 388.278,181.14C388.459,181.605 388.55,182.126 388.55,182.704ZM389.944,176.414C389.944,176.142 390.041,175.916 390.233,175.734C390.437,175.553 390.653,175.462 390.879,175.462C391.106,175.462 391.316,175.553 391.508,175.734C391.701,175.916 391.797,176.142 391.797,176.414C391.797,176.686 391.701,176.913 391.508,177.094C391.316,177.264 391.106,177.349 390.879,177.349C390.653,177.349 390.437,177.264 390.233,177.094C390.041,176.913 389.944,176.686 389.944,176.414ZM391.576,186.24L390.131,186.24L390.131,179.134L391.576,179.134L391.576,186.24ZM398.378,184.489C398.536,184.682 398.684,184.869 398.82,185.05C398.967,185.22 399.114,185.402 399.262,185.594C398.944,185.844 398.587,186.042 398.191,186.189C397.794,186.337 397.363,186.41 396.899,186.41C396.377,186.41 395.884,186.314 395.42,186.121C394.966,185.917 394.57,185.645 394.23,185.305C393.89,184.965 393.618,184.569 393.414,184.115C393.221,183.662 393.125,183.18 393.125,182.67C393.125,182.16 393.221,181.679 393.414,181.225C393.618,180.772 393.89,180.381 394.23,180.052C394.57,179.712 394.966,179.446 395.42,179.253C395.884,179.049 396.377,178.947 396.899,178.947C397.375,178.947 397.811,179.021 398.208,179.168C398.616,179.316 398.984,179.514 399.313,179.763L398.378,180.868C398.185,180.71 397.964,180.591 397.715,180.511C397.465,180.421 397.193,180.375 396.899,180.375C396.559,180.375 396.247,180.438 395.964,180.562C395.68,180.676 395.431,180.834 395.216,181.038C395.012,181.242 394.853,181.486 394.74,181.769C394.626,182.041 394.57,182.342 394.57,182.67C394.57,182.999 394.626,183.305 394.74,183.588C394.853,183.86 395.012,184.104 395.216,184.319C395.431,184.523 395.68,184.688 395.964,184.812C396.247,184.926 396.559,184.982 396.899,184.982C397.193,184.982 397.465,184.943 397.715,184.863C397.964,184.773 398.185,184.648 398.378,184.489ZM401.302,176.006L402.747,176.006L402.747,179.151L404.651,179.151L404.651,180.443L402.747,180.443L402.747,186.24L401.302,186.24L401.302,180.443L400.027,180.443L400.027,179.151L401.302,179.151L401.302,176.006ZM412.466,186.393L411.242,186.393L411.072,184.421C410.811,184.999 410.443,185.475 409.967,185.849C409.502,186.223 408.907,186.41 408.182,186.41C407.457,186.41 406.879,186.218 406.448,185.832C406.029,185.436 405.808,184.92 405.785,184.285L405.785,179.134L407.23,179.134L407.23,183.639C407.253,183.991 407.377,184.291 407.604,184.54C407.842,184.79 408.205,184.931 408.692,184.965C409.032,184.965 409.344,184.909 409.627,184.795C409.91,184.671 410.154,184.506 410.358,184.302C410.562,184.098 410.721,183.855 410.834,183.571C410.947,183.288 411.004,182.976 411.004,182.636L411.004,179.134L412.466,179.134L412.466,186.393ZM418.412,180.817C418.095,180.817 417.789,180.863 417.494,180.953C417.2,181.033 416.933,181.157 416.695,181.327C416.469,181.497 416.287,181.713 416.151,181.973C416.015,182.223 415.947,182.512 415.947,182.84L415.947,186.24L414.502,186.24L414.502,179.134L415.777,179.134C415.8,179.486 415.817,179.809 415.828,180.103C415.851,180.387 415.874,180.67 415.896,180.953C416.044,180.647 416.236,180.37 416.474,180.12C416.712,179.871 416.967,179.661 417.239,179.491C417.511,179.321 417.778,179.191 418.038,179.1C418.299,178.998 418.531,178.947 418.735,178.947L418.412,180.817ZM425.667,185.407C425.327,185.713 424.913,185.957 424.426,186.138C423.939,186.32 423.44,186.41 422.93,186.41C422.409,186.41 421.916,186.314 421.451,186.121C420.998,185.917 420.601,185.651 420.261,185.322C419.921,184.982 419.649,184.586 419.445,184.132C419.252,183.679 419.156,183.197 419.156,182.687C419.156,182.177 419.252,181.696 419.445,181.242C419.649,180.789 419.921,180.392 420.261,180.052C420.601,179.712 420.992,179.446 421.434,179.253C421.887,179.049 422.369,178.947 422.879,178.947C423.684,178.947 424.381,179.191 424.97,179.678C425.571,180.154 426.001,180.783 426.262,181.565C425.911,181.69 425.508,181.843 425.055,182.024C424.602,182.206 424.131,182.398 423.644,182.602C423.157,182.795 422.669,182.988 422.182,183.18C421.695,183.373 421.241,183.549 420.822,183.707C421.015,184.093 421.292,184.404 421.655,184.642C422.029,184.869 422.443,184.982 422.896,184.982C423.202,184.982 423.508,184.926 423.814,184.812C424.131,184.699 424.386,184.546 424.579,184.353L425.667,185.407ZM424.443,181.225C424.307,180.942 424.092,180.732 423.797,180.596C423.502,180.449 423.202,180.375 422.896,180.375C422.567,180.375 422.261,180.438 421.978,180.562C421.706,180.687 421.468,180.857 421.264,181.072C421.06,181.276 420.896,181.514 420.771,181.786C420.658,182.058 420.601,182.336 420.601,182.619L420.601,182.738C420.612,182.761 420.618,182.778 420.618,182.789C420.913,182.676 421.23,182.551 421.57,182.415C421.921,182.268 422.267,182.126 422.607,181.99C422.947,181.843 423.276,181.707 423.593,181.582C423.91,181.446 424.194,181.327 424.443,181.225ZM431.479,179.763L430.714,180.783C430.703,180.772 430.663,180.744 430.595,180.698C430.527,180.653 430.436,180.608 430.323,180.562C430.221,180.517 430.096,180.477 429.949,180.443C429.813,180.398 429.671,180.375 429.524,180.375C429.331,180.375 429.139,180.421 428.946,180.511C428.765,180.602 428.674,180.772 428.674,181.021C428.674,181.237 428.748,181.412 428.895,181.548C429.054,181.684 429.246,181.809 429.473,181.922C429.7,182.024 429.943,182.132 430.204,182.245C430.476,182.359 430.725,182.5 430.952,182.67C431.179,182.829 431.366,183.033 431.513,183.282C431.672,183.52 431.751,183.826 431.751,184.2C431.751,184.835 431.53,185.362 431.088,185.781C430.657,186.189 430.062,186.393 429.303,186.393C428.861,186.393 428.425,186.32 427.994,186.172C427.575,186.014 427.235,185.787 426.974,185.492C427.053,185.413 427.138,185.311 427.229,185.186C427.331,185.062 427.427,184.943 427.518,184.829C427.62,184.716 427.699,184.625 427.756,184.557C427.824,184.478 427.864,184.438 427.875,184.438C427.875,184.45 427.915,184.484 427.994,184.54C428.085,184.597 428.198,184.659 428.334,184.727C428.47,184.784 428.623,184.841 428.793,184.897C428.963,184.943 429.133,184.965 429.303,184.965C429.575,184.965 429.807,184.897 430,184.761C430.193,184.625 430.289,184.444 430.289,184.217C430.289,184.013 430.21,183.855 430.051,183.741C429.904,183.617 429.717,183.503 429.49,183.401C429.263,183.299 429.014,183.197 428.742,183.095C428.47,182.982 428.221,182.84 427.994,182.67C427.767,182.5 427.575,182.291 427.416,182.041C427.269,181.781 427.195,181.446 427.195,181.038C427.195,180.653 427.263,180.33 427.399,180.069C427.546,179.809 427.728,179.599 427.943,179.44C428.17,179.27 428.419,179.151 428.691,179.083C428.963,179.004 429.224,178.964 429.473,178.964C429.802,178.964 430.153,179.032 430.527,179.168C430.901,179.304 431.218,179.503 431.479,179.763Z" style="fill-rule:nonzero;"/>
    </g>
    <g transform="matrix(1,0,0,1,-13.4314,-66.5176)">
        <path d="M309.626,192.621C309.458,193.432 309.98,194.225 310.792,194.393L324.013,197.123C324.824,197.291 325.617,196.769 325.785,195.958C325.953,195.146 325.431,194.353 324.619,194.185L312.867,191.758L315.294,180.006C315.462,179.195 314.94,178.402 314.129,178.234C313.317,178.066 312.524,178.588 312.356,179.4L309.626,192.621ZM354.86,162.346L310.271,191.671L311.919,194.177L356.509,164.853L354.86,162.346Z" style="fill-rule:nonzero;"/>
    </g>
    <g transform="matrix(1,0,0,1,-13.4314,-70.5176)">
        <path d="M48.583,182.995C48.583,182.723 48.679,182.496 48.872,182.315C49.076,182.133 49.291,182.043 49.518,182.043C49.744,182.043 49.954,182.133 50.147,182.315C50.339,182.496 50.436,182.723 50.436,182.995C50.436,183.267 50.339,183.493 50.147,183.675C49.954,183.845 49.744,183.93 49.518,183.93C49.291,183.93 49.076,183.845 48.872,183.675C48.679,183.493 48.583,183.267 48.583,182.995ZM50.215,192.821L48.77,192.821L48.77,185.715L50.215,185.715L50.215,192.821ZM51.78,189.268C51.78,188.712 51.871,188.208 52.052,187.755C52.245,187.29 52.505,186.893 52.834,186.565C53.163,186.236 53.548,185.981 53.99,185.8C54.443,185.618 54.931,185.528 55.452,185.528C55.803,185.528 56.115,185.573 56.387,185.664C56.67,185.743 56.908,185.845 57.101,185.97C57.305,186.083 57.475,186.213 57.611,186.361C57.747,186.508 57.849,186.638 57.917,186.752L57.917,179.612L59.379,179.612L59.379,192.821L57.917,192.821L57.917,192.294C57.917,192.226 57.923,192.152 57.934,192.073C57.945,191.982 57.951,191.908 57.951,191.852C57.838,191.988 57.702,192.124 57.543,192.26C57.396,192.384 57.22,192.503 57.016,192.617C56.812,192.73 56.574,192.821 56.302,192.889C56.041,192.957 55.741,192.991 55.401,192.991C54.834,192.991 54.324,192.894 53.871,192.702C53.429,192.498 53.049,192.231 52.732,191.903C52.426,191.563 52.188,191.166 52.018,190.713C51.859,190.259 51.78,189.778 51.78,189.268ZM53.242,189.251C53.242,189.579 53.298,189.885 53.412,190.169C53.536,190.452 53.701,190.696 53.905,190.9C54.109,191.104 54.353,191.268 54.636,191.393C54.919,191.506 55.231,191.563 55.571,191.563C55.911,191.563 56.222,191.506 56.506,191.393C56.801,191.268 57.05,191.104 57.254,190.9C57.469,190.684 57.634,190.441 57.747,190.169C57.86,189.885 57.917,189.579 57.917,189.251C57.917,188.922 57.86,188.622 57.747,188.35C57.634,188.066 57.469,187.823 57.254,187.619C57.05,187.415 56.801,187.256 56.506,187.143C56.222,187.018 55.911,186.956 55.571,186.956C55.231,186.956 54.919,187.018 54.636,187.143C54.353,187.256 54.109,187.415 53.905,187.619C53.701,187.823 53.536,188.066 53.412,188.35C53.298,188.622 53.242,188.922 53.242,189.251ZM67.438,191.988C67.098,192.294 66.684,192.537 66.197,192.719C65.71,192.9 65.211,192.991 64.701,192.991C64.18,192.991 63.687,192.894 63.222,192.702C62.769,192.498 62.372,192.231 62.032,191.903C61.692,191.563 61.42,191.166 61.216,190.713C61.023,190.259 60.927,189.778 60.927,189.268C60.927,188.758 61.023,188.276 61.216,187.823C61.42,187.369 61.692,186.973 62.032,186.633C62.372,186.293 62.763,186.026 63.205,185.834C63.658,185.63 64.14,185.528 64.65,185.528C65.454,185.528 66.152,185.771 66.741,186.259C67.342,186.735 67.772,187.364 68.033,188.146C67.682,188.27 67.279,188.423 66.826,188.605C66.373,188.786 65.902,188.979 65.415,189.183C64.927,189.375 64.44,189.568 63.953,189.761C63.466,189.953 63.012,190.129 62.593,190.288C62.786,190.673 63.063,190.985 63.426,191.223C63.8,191.449 64.213,191.563 64.667,191.563C64.973,191.563 65.279,191.506 65.585,191.393C65.902,191.279 66.157,191.126 66.35,190.934L67.438,191.988ZM66.214,187.806C66.078,187.522 65.863,187.313 65.568,187.177C65.273,187.029 64.973,186.956 64.667,186.956C64.338,186.956 64.032,187.018 63.749,187.143C63.477,187.267 63.239,187.437 63.035,187.653C62.831,187.857 62.667,188.095 62.542,188.367C62.429,188.639 62.372,188.916 62.372,189.2L62.372,189.319C62.383,189.341 62.389,189.358 62.389,189.37C62.684,189.256 63.001,189.132 63.341,188.996C63.692,188.848 64.038,188.707 64.378,188.571C64.718,188.423 65.046,188.287 65.364,188.163C65.681,188.027 65.965,187.908 66.214,187.806ZM68.796,189.336C68.796,188.814 68.892,188.327 69.085,187.874C69.289,187.409 69.561,187.007 69.901,186.667C70.241,186.315 70.632,186.038 71.074,185.834C71.527,185.63 72.009,185.528 72.519,185.528C72.859,185.528 73.171,185.573 73.454,185.664C73.737,185.743 73.981,185.845 74.185,185.97C74.389,186.094 74.553,186.225 74.678,186.361C74.803,186.497 74.888,186.616 74.933,186.718L75.001,185.715L76.395,185.715L76.395,192.821L74.933,192.821L74.933,191.92C74.876,192.01 74.786,192.118 74.661,192.243C74.536,192.367 74.372,192.486 74.168,192.6C73.975,192.702 73.743,192.792 73.471,192.872C73.199,192.951 72.887,192.991 72.536,192.991C71.992,192.991 71.488,192.894 71.023,192.702C70.57,192.498 70.179,192.231 69.85,191.903C69.521,191.563 69.261,191.172 69.068,190.73C68.887,190.288 68.796,189.823 68.796,189.336ZM70.258,189.251C70.258,189.579 70.315,189.885 70.428,190.169C70.553,190.452 70.717,190.696 70.921,190.9C71.125,191.104 71.369,191.268 71.652,191.393C71.935,191.506 72.247,191.563 72.587,191.563C72.927,191.563 73.239,191.506 73.522,191.393C73.817,191.268 74.066,191.104 74.27,190.9C74.485,190.684 74.65,190.441 74.763,190.169C74.876,189.885 74.933,189.579 74.933,189.251C74.933,188.922 74.876,188.622 74.763,188.35C74.65,188.066 74.485,187.823 74.27,187.619C74.066,187.415 73.817,187.256 73.522,187.143C73.239,187.018 72.927,186.956 72.587,186.956C72.247,186.956 71.935,187.018 71.652,187.143C71.369,187.256 71.125,187.415 70.921,187.619C70.717,187.823 70.553,188.066 70.428,188.35C70.315,188.622 70.258,188.922 70.258,189.251ZM82.397,186.344L81.632,187.364C81.621,187.352 81.582,187.324 81.513,187.279C81.446,187.233 81.355,187.188 81.242,187.143C81.14,187.097 81.015,187.058 80.868,187.024C80.732,186.978 80.59,186.956 80.443,186.956C80.25,186.956 80.057,187.001 79.865,187.092C79.683,187.182 79.593,187.352 79.593,187.602C79.593,187.817 79.666,187.993 79.814,188.129C79.972,188.265 80.165,188.389 80.391,188.503C80.618,188.605 80.862,188.712 81.123,188.826C81.394,188.939 81.644,189.081 81.871,189.251C82.097,189.409 82.284,189.613 82.432,189.863C82.59,190.101 82.67,190.407 82.67,190.781C82.67,191.415 82.449,191.942 82.007,192.362C81.576,192.77 80.981,192.974 80.222,192.974C79.78,192.974 79.343,192.9 78.912,192.753C78.493,192.594 78.153,192.367 77.893,192.073C77.972,191.993 78.057,191.891 78.147,191.767C78.25,191.642 78.346,191.523 78.437,191.41C78.539,191.296 78.618,191.206 78.675,191.138C78.743,191.058 78.782,191.019 78.794,191.019C78.794,191.03 78.833,191.064 78.912,191.121C79.003,191.177 79.117,191.24 79.253,191.308C79.388,191.364 79.542,191.421 79.712,191.478C79.882,191.523 80.052,191.546 80.222,191.546C80.494,191.546 80.726,191.478 80.919,191.342C81.111,191.206 81.208,191.024 81.208,190.798C81.208,190.594 81.128,190.435 80.97,190.322C80.822,190.197 80.635,190.084 80.409,189.982C80.182,189.88 79.933,189.778 79.661,189.676C79.388,189.562 79.139,189.421 78.912,189.251C78.686,189.081 78.493,188.871 78.335,188.622C78.187,188.361 78.114,188.027 78.114,187.619C78.114,187.233 78.182,186.91 78.318,186.65C78.465,186.389 78.646,186.179 78.862,186.021C79.088,185.851 79.338,185.732 79.61,185.664C79.882,185.584 80.142,185.545 80.391,185.545C80.72,185.545 81.072,185.613 81.446,185.749C81.82,185.885 82.137,186.083 82.397,186.344Z" style="fill-rule:nonzero;"/>
    </g>
    <g transform="matrix(1,0,0,1,-13.4314,-66.5176)">
        <path d="M161.187,198.613C162.003,198.467 162.545,197.687 162.399,196.872L160.014,183.584C159.867,182.768 159.088,182.226 158.272,182.372C157.457,182.519 156.915,183.298 157.061,184.114L159.181,195.925L147.37,198.045C146.554,198.191 146.012,198.971 146.158,199.787C146.305,200.602 147.084,201.144 147.9,200.998L161.187,198.613ZM113.869,166.231L160.066,198.368L161.779,195.905L115.583,163.769L113.869,166.231Z" style="fill-rule:nonzero;"/>
    </g>
    <g transform="matrix(1,0,0,1,-13.4314,-66.5176)">
        <path d="M97.453,279.458C97.453,268.42 88.491,259.458 77.453,259.458L58,259.458C46.962,259.458 38,268.42 38,279.458L38,298.911C38,309.949 46.962,318.911 58,318.911L77.453,318.911C88.491,318.911 97.453,309.949 97.453,298.911L97.453,279.458Z" style="fill:none;"/>
    </g>
    <g transform="matrix(1,0,0,1,-13.4314,-66.5176)">
        <path d="M53.42,335.357C53.579,335.549 53.726,335.736 53.862,335.918C54.01,336.088 54.157,336.269 54.304,336.462C53.987,336.711 53.63,336.909 53.233,337.057C52.837,337.204 52.406,337.278 51.941,337.278C51.42,337.278 50.927,337.181 50.462,336.989C50.009,336.785 49.612,336.513 49.272,336.173C48.932,335.833 48.66,335.436 48.456,334.983C48.264,334.529 48.167,334.048 48.167,333.538C48.167,333.028 48.264,332.546 48.456,332.093C48.66,331.639 48.932,331.248 49.272,330.92C49.612,330.58 50.009,330.313 50.462,330.121C50.927,329.917 51.42,329.815 51.941,329.815C52.417,329.815 52.854,329.888 53.25,330.036C53.658,330.183 54.027,330.381 54.355,330.631L53.42,331.736C53.228,331.577 53.007,331.458 52.757,331.379C52.508,331.288 52.236,331.243 51.941,331.243C51.601,331.243 51.29,331.305 51.006,331.43C50.723,331.543 50.474,331.702 50.258,331.906C50.054,332.11 49.896,332.353 49.782,332.637C49.669,332.909 49.612,333.209 49.612,333.538C49.612,333.866 49.669,334.172 49.782,334.456C49.896,334.728 50.054,334.971 50.258,335.187C50.474,335.391 50.723,335.555 51.006,335.68C51.29,335.793 51.601,335.85 51.941,335.85C52.236,335.85 52.508,335.81 52.757,335.731C53.007,335.64 53.228,335.515 53.42,335.357ZM54.99,333.538C54.99,333.028 55.087,332.546 55.28,332.093C55.484,331.639 55.756,331.248 56.096,330.92C56.436,330.58 56.832,330.313 57.286,330.121C57.75,329.917 58.249,329.815 58.782,329.815C59.314,329.815 59.807,329.917 60.261,330.121C60.725,330.313 61.122,330.58 61.451,330.92C61.791,331.248 62.051,331.639 62.233,332.093C62.425,332.546 62.522,333.028 62.522,333.538C62.522,334.048 62.425,334.529 62.233,334.983C62.051,335.436 61.791,335.833 61.451,336.173C61.122,336.513 60.725,336.785 60.261,336.989C59.807,337.181 59.309,337.278 58.765,337.278C58.243,337.278 57.75,337.187 57.286,337.006C56.832,336.824 56.436,336.569 56.096,336.241C55.756,335.912 55.484,335.521 55.28,335.068C55.087,334.603 54.99,334.093 54.99,333.538ZM56.436,333.555C56.436,333.872 56.492,334.172 56.606,334.456C56.73,334.728 56.895,334.971 57.099,335.187C57.314,335.391 57.557,335.555 57.83,335.68C58.113,335.793 58.413,335.85 58.731,335.85C59.048,335.85 59.348,335.793 59.632,335.68C59.915,335.555 60.158,335.391 60.362,335.187C60.578,334.971 60.748,334.728 60.873,334.456C60.997,334.172 61.06,333.872 61.06,333.555C61.06,333.237 60.997,332.937 60.873,332.654C60.748,332.37 60.578,332.127 60.362,331.923C60.158,331.707 59.915,331.543 59.632,331.43C59.348,331.305 59.048,331.243 58.731,331.243C58.413,331.243 58.113,331.305 57.83,331.43C57.557,331.543 57.314,331.707 57.099,331.923C56.895,332.127 56.73,332.37 56.606,332.654C56.492,332.937 56.436,333.237 56.436,333.555ZM65.528,337.108L64.084,337.108L64.084,323.899L65.528,323.899L65.528,337.108ZM67.093,333.538C67.093,333.028 67.189,332.546 67.382,332.093C67.586,331.639 67.858,331.248 68.198,330.92C68.538,330.58 68.935,330.313 69.388,330.121C69.853,329.917 70.351,329.815 70.884,329.815C71.417,329.815 71.91,329.917 72.363,330.121C72.828,330.313 73.224,330.58 73.553,330.92C73.893,331.248 74.154,331.639 74.335,332.093C74.528,332.546 74.624,333.028 74.624,333.538C74.624,334.048 74.528,334.529 74.335,334.983C74.154,335.436 73.893,335.833 73.553,336.173C73.224,336.513 72.828,336.785 72.363,336.989C71.91,337.181 71.411,337.278 70.867,337.278C70.346,337.278 69.853,337.187 69.388,337.006C68.935,336.824 68.538,336.569 68.198,336.241C67.858,335.912 67.586,335.521 67.382,335.068C67.189,334.603 67.093,334.093 67.093,333.538ZM68.538,333.555C68.538,333.872 68.595,334.172 68.708,334.456C68.833,334.728 68.997,334.971 69.201,335.187C69.416,335.391 69.66,335.555 69.932,335.68C70.215,335.793 70.516,335.85 70.833,335.85C71.15,335.85 71.451,335.793 71.734,335.68C72.017,335.555 72.261,335.391 72.465,335.187C72.68,334.971 72.85,334.728 72.975,334.456C73.1,334.172 73.162,333.872 73.162,333.555C73.162,333.237 73.1,332.937 72.975,332.654C72.85,332.37 72.68,332.127 72.465,331.923C72.261,331.707 72.017,331.543 71.734,331.43C71.451,331.305 71.15,331.243 70.833,331.243C70.516,331.243 70.215,331.305 69.932,331.43C69.66,331.543 69.416,331.707 69.201,331.923C68.997,332.127 68.833,332.37 68.708,332.654C68.595,332.937 68.538,333.237 68.538,333.555ZM80.079,331.685C79.762,331.685 79.456,331.73 79.161,331.821C78.866,331.9 78.6,332.025 78.362,332.195C78.135,332.365 77.954,332.58 77.818,332.841C77.682,333.09 77.614,333.379 77.614,333.708L77.614,337.108L76.169,337.108L76.169,330.002L77.444,330.002C77.467,330.353 77.484,330.676 77.495,330.971C77.518,331.254 77.54,331.537 77.563,331.821C77.71,331.515 77.903,331.237 78.141,330.988C78.379,330.738 78.634,330.529 78.906,330.359C79.178,330.189 79.444,330.058 79.705,329.968C79.966,329.866 80.198,329.815 80.402,329.815L80.079,331.685ZM85.409,330.631L84.644,331.651C84.633,331.639 84.593,331.611 84.525,331.566C84.457,331.52 84.367,331.475 84.253,331.43C84.151,331.384 84.027,331.345 83.879,331.311C83.743,331.265 83.602,331.243 83.454,331.243C83.262,331.243 83.069,331.288 82.876,331.379C82.695,331.469 82.604,331.639 82.604,331.889C82.604,332.104 82.678,332.28 82.825,332.416C82.984,332.552 83.177,332.676 83.403,332.79C83.63,332.892 83.874,332.999 84.134,333.113C84.406,333.226 84.656,333.368 84.882,333.538C85.109,333.696 85.296,333.9 85.443,334.15C85.602,334.388 85.681,334.694 85.681,335.068C85.681,335.702 85.46,336.229 85.018,336.649C84.588,337.057 83.993,337.261 83.233,337.261C82.791,337.261 82.355,337.187 81.924,337.04C81.505,336.881 81.165,336.654 80.904,336.36C80.984,336.28 81.069,336.178 81.159,336.054C81.261,335.929 81.358,335.81 81.448,335.697C81.55,335.583 81.63,335.493 81.686,335.425C81.754,335.345 81.794,335.306 81.805,335.306C81.805,335.317 81.845,335.351 81.924,335.408C82.015,335.464 82.128,335.527 82.264,335.595C82.4,335.651 82.553,335.708 82.723,335.765C82.893,335.81 83.063,335.833 83.233,335.833C83.505,335.833 83.738,335.765 83.93,335.629C84.123,335.493 84.219,335.311 84.219,335.085C84.219,334.881 84.14,334.722 83.981,334.609C83.834,334.484 83.647,334.371 83.42,334.269C83.194,334.167 82.944,334.065 82.672,333.963C82.4,333.849 82.151,333.708 81.924,333.538C81.698,333.368 81.505,333.158 81.346,332.909C81.199,332.648 81.125,332.314 81.125,331.906C81.125,331.52 81.193,331.197 81.329,330.937C81.477,330.676 81.658,330.466 81.873,330.308C82.1,330.138 82.349,330.019 82.621,329.951C82.893,329.871 83.154,329.832 83.403,329.832C83.732,329.832 84.083,329.9 84.457,330.036C84.831,330.172 85.149,330.37 85.409,330.631Z" style="fill-rule:nonzero;"/>
    </g>
    <g transform="matrix(1,0,0,1,-13.4314,-66.5176)">
        <path d="M168.008,260.598C168.194,259.791 167.69,258.986 166.882,258.8L153.726,255.774C152.919,255.588 152.114,256.092 151.928,256.9C151.742,257.707 152.246,258.512 153.053,258.698L164.748,261.388L162.058,273.082C161.873,273.89 162.377,274.695 163.184,274.88C163.991,275.066 164.796,274.562 164.982,273.755L168.008,260.598ZM117.932,292.465L167.342,261.533L165.75,258.991L116.34,289.922L117.932,292.465Z" style="fill-rule:nonzero;"/>
    </g>
    <g transform="matrix(1,0,0,1,-13.4314,-66.5176)">
        <path d="M397.181,327.766L398.626,327.766L398.626,330.911L400.53,330.911L400.53,332.203L398.626,332.203L398.626,338L397.181,338L397.181,332.203L395.906,332.203L395.906,330.911L397.181,330.911L397.181,327.766ZM407.601,337.167C407.261,337.473 406.847,337.717 406.36,337.898C405.873,338.079 405.374,338.17 404.864,338.17C404.343,338.17 403.85,338.074 403.385,337.881C402.932,337.677 402.535,337.411 402.195,337.082C401.855,336.742 401.583,336.345 401.379,335.892C401.186,335.439 401.09,334.957 401.09,334.447C401.09,333.937 401.186,333.455 401.379,333.002C401.583,332.549 401.855,332.152 402.195,331.812C402.535,331.472 402.926,331.206 403.368,331.013C403.821,330.809 404.303,330.707 404.813,330.707C405.618,330.707 406.315,330.951 406.904,331.438C407.505,331.914 407.935,332.543 408.196,333.325C407.845,333.45 407.442,333.603 406.989,333.784C406.536,333.965 406.065,334.158 405.578,334.362C405.091,334.555 404.603,334.747 404.116,334.94C403.629,335.133 403.175,335.308 402.756,335.467C402.949,335.852 403.226,336.164 403.589,336.402C403.963,336.629 404.377,336.742 404.83,336.742C405.136,336.742 405.442,336.685 405.748,336.572C406.065,336.459 406.32,336.306 406.513,336.113L407.601,337.167ZM406.377,332.985C406.241,332.702 406.026,332.492 405.731,332.356C405.436,332.209 405.136,332.135 404.83,332.135C404.501,332.135 404.195,332.197 403.912,332.322C403.64,332.447 403.402,332.617 403.198,332.832C402.994,333.036 402.83,333.274 402.705,333.546C402.592,333.818 402.535,334.096 402.535,334.379L402.535,334.498C402.546,334.521 402.552,334.538 402.552,334.549C402.847,334.436 403.164,334.311 403.504,334.175C403.855,334.028 404.201,333.886 404.541,333.75C404.881,333.603 405.21,333.467 405.527,333.342C405.844,333.206 406.128,333.087 406.377,332.985ZM411.22,334.243C410.824,333.676 410.41,333.115 409.979,332.56C409.56,332.005 409.158,331.449 408.772,330.894L410.557,330.894C410.693,331.121 410.824,331.325 410.948,331.506C411.084,331.687 411.215,331.863 411.339,332.033C411.475,332.203 411.606,332.379 411.73,332.56C411.866,332.73 412.008,332.923 412.155,333.138C412.439,332.719 412.705,332.35 412.954,332.033C413.204,331.704 413.476,331.325 413.77,330.894L415.385,330.894C415.181,331.211 414.983,331.506 414.79,331.778C414.598,332.039 414.405,332.305 414.212,332.577C414.02,332.838 413.821,333.11 413.617,333.393C413.425,333.665 413.221,333.971 413.005,334.311C413.209,334.583 413.425,334.878 413.651,335.195C413.889,335.512 414.127,335.835 414.365,336.164C414.603,336.481 414.836,336.799 415.062,337.116C415.289,337.433 415.499,337.728 415.691,338L413.838,338C413.521,337.558 413.209,337.15 412.903,336.776C412.597,336.402 412.286,336 411.968,335.569C411.674,336 411.385,336.402 411.101,336.776C410.818,337.15 410.529,337.558 410.234,338L408.619,338C409.05,337.354 409.486,336.725 409.928,336.113C410.37,335.49 410.801,334.866 411.22,334.243ZM417.435,327.766L418.88,327.766L418.88,330.911L420.784,330.911L420.784,332.203L418.88,332.203L418.88,338L417.435,338L417.435,332.203L416.16,332.203L416.16,330.911L417.435,330.911L417.435,327.766Z" style="fill-rule:nonzero;"/>
    </g>
    <g transform="matrix(1,0,0,1,-13.4314,-66.5176)">
        <path d="M310.744,262.568C309.938,262.762 309.443,263.572 309.637,264.378L312.8,277.502C312.994,278.307 313.804,278.803 314.61,278.609C315.415,278.414 315.911,277.604 315.717,276.799L312.905,265.133L324.571,262.321C325.376,262.127 325.872,261.317 325.678,260.511C325.483,259.706 324.673,259.211 323.868,259.405L310.744,262.568ZM360.484,292.473L311.878,262.746L310.313,265.306L358.919,295.032L360.484,292.473Z" style="fill-rule:nonzero;"/>
    </g>
    <g transform="matrix(1,0,0,1,-13.4314,-66.5176)">
        <path d="M378.812,271.8C379.813,271.8 380.624,270.989 380.624,269.988L380.624,261.624L388.988,261.624C389.989,261.624 390.8,260.813 390.8,259.812C390.8,258.811 389.989,258 388.988,258L378.812,258C377.811,258 377,258.811 377,259.812L377,269.988C377,270.989 377.811,271.8 378.812,271.8Z" style="fill-rule:nonzero;"/>
    </g>
    <g transform="matrix(1,0,0,1,-13.4314,-66.5176)">
        <path d="M436.521,258L426.345,258C425.345,258 424.533,258.811 424.533,259.812C424.533,260.813 425.345,261.624 426.345,261.624L434.709,261.624L434.709,269.988C434.709,270.989 435.521,271.8 436.521,271.8C437.522,271.8 438.333,270.989 438.333,269.988L438.333,259.812C438.333,258.811 437.522,258 436.521,258Z" style="fill-rule:nonzero;"/>
    </g>
    <g transform="matrix(1,0,0,1,-13.4314,-66.5176)">
        <path d="M436.521,305.533C435.521,305.533 434.709,306.345 434.709,307.345L434.709,315.709L426.345,315.709C425.345,315.709 424.533,316.52 424.533,317.521C424.533,318.522 425.345,319.333 426.345,319.333L436.521,319.333C437.522,319.333 438.333,318.522 438.333,317.521L438.333,307.345C438.333,306.344 437.522,305.533 436.521,305.533Z" style="fill-rule:nonzero;"/>
    </g>
    <g transform="matrix(1,0,0,1,-13.4314,-66.5176)">
        <path d="M388.988,315.709L380.624,315.709L380.624,307.345C380.624,306.345 379.813,305.533 378.812,305.533C377.811,305.533 377,306.345 377,307.345L377,317.521C377,318.522 377.811,319.333 378.812,319.333L388.988,319.333C389.989,319.333 390.8,318.522 390.8,317.521C390.8,316.52 389.989,315.709 388.988,315.709Z" style="fill-rule:nonzero;"/>
    </g>
    <g transform="matrix(1,0,0,1,-13.4314,-66.5176)">
        <path d="M427.6,280.952L427.6,269.741C427.6,269.184 427.136,268.733 426.562,268.733L388.771,268.733C388.197,268.733 387.733,269.184 387.733,269.741L387.733,280.952C387.733,281.509 388.197,281.96 388.771,281.96L394.281,281.96C394.854,281.96 395.318,281.509 395.318,280.952L395.318,277.111C395.318,276.554 395.783,276.103 396.355,276.103L402.836,276.103C403.41,276.103 403.874,276.554 403.874,277.111L403.874,304.822C403.874,305.379 403.41,305.83 402.836,305.83L400.002,305.83C399.428,305.83 398.964,306.281 398.964,306.839L398.964,312.193C398.964,312.749 399.428,313.2 400.002,313.2L415.331,313.2C415.905,313.2 416.369,312.749 416.369,312.193L416.369,306.839C416.369,306.281 415.905,305.83 415.331,305.83L412.497,305.83C411.923,305.83 411.459,305.379 411.459,304.822L411.459,277.111C411.459,276.554 411.923,276.103 412.497,276.103L418.978,276.103C419.55,276.103 420.016,276.554 420.016,277.111L420.016,280.952C420.016,281.509 420.48,281.96 421.052,281.96L426.562,281.96C427.136,281.96 427.6,281.509 427.6,280.952Z" style="fill-rule:nonzero;"/>
    </g>
    <g transform="matrix(1,0,0,1,1.45244,-2.57138)">
        <g transform="matrix(1,0,0,1,-13.4314,-66.5176)">
            <path d="M83.442,137.784C82.4,129.502 75.688,122.982 67.181,121.988C66.448,121.906 65.711,121.866 64.974,121.865C57.456,121.877 50.686,126.301 47.827,133.073C44.968,139.844 46.584,147.626 51.92,152.784C54.757,155.43 56.382,159.077 56.429,162.903C56.429,164.057 57.364,164.992 58.518,164.992L71.471,164.992C72.631,164.992 73.571,164.052 73.571,162.892C73.584,159.139 75.152,155.549 77.92,152.937C82.1,149.01 84.145,143.398 83.442,137.784Z" style="fill-rule:nonzero;"/>
        </g>
        <g transform="matrix(1,0,0,1,-13.4314,-66.5176)">
            <path d="M72.561,168.438C72.56,167.496 71.911,166.732 71.11,166.731L59.5,166.731C58.699,166.732 58.05,167.496 58.049,168.438C58.049,171.267 60.342,173.56 63.171,173.56L67.439,173.56C70.268,173.56 72.561,171.267 72.561,168.438Z" style="fill-rule:nonzero;"/>
        </g>
        <g transform="matrix(1,0,0,1,-13.4314,-66.5176)">
            <path d="M65,113.52C66.578,113.52 67.857,112.275 67.857,110.738L67.857,103.782C67.857,102.246 66.578,101 65,101C63.422,101 62.143,102.246 62.143,103.782L62.143,110.738C62.143,112.275 63.422,113.52 65,113.52Z" style="fill-rule:nonzero;"/>
        </g>
        <g transform="matrix(1,0,0,1,-13.4314,-66.5176)">
            <path d="M40.887,120.406C42.018,121.457 43.798,121.457 44.928,120.406C45.464,119.884 45.765,119.176 45.765,118.438C45.765,117.7 45.464,116.992 44.928,116.471L39.877,111.553C39.342,111.031 38.615,110.738 37.857,110.738C37.1,110.738 36.373,111.031 35.837,111.553C35.301,112.074 35,112.782 35,113.52C35,114.258 35.301,114.966 35.837,115.487L40.887,120.406Z" style="fill-rule:nonzero;"/>
        </g>
        <g transform="matrix(1,0,0,1,-13.4314,-66.5176)">
            <path d="M37.857,139.952C37.857,138.415 36.578,137.169 35,137.169L27.857,137.169C26.28,137.171 25.002,138.416 25,139.952C25.002,141.488 26.28,142.733 27.857,142.734L35,142.734C36.578,142.734 37.857,141.488 37.857,139.952Z" style="fill-rule:nonzero;"/>
        </g>
        <g transform="matrix(1,0,0,1,-13.4314,-66.5176)">
            <path d="M43.649,158.773C42.662,158.516 41.609,158.792 40.887,159.498L35.837,164.416C35.301,164.938 35,165.645 35,166.383C35,167.121 35.301,167.829 35.837,168.35C36.967,169.402 38.747,169.402 39.877,168.35L44.928,163.433C45.652,162.73 45.936,161.705 45.672,160.743C45.408,159.781 44.637,159.03 43.649,158.773Z" style="fill-rule:nonzero;"/>
        </g>
        <g transform="matrix(1,0,0,1,-13.4314,-66.5176)">
            <path d="M89.113,159.498C88.391,158.792 87.338,158.516 86.351,158.773C85.363,159.03 84.592,159.781 84.328,160.743C84.064,161.704 84.348,162.73 85.072,163.432L90.123,168.35C91.253,169.402 93.033,169.402 94.163,168.35C94.699,167.829 95,167.121 95,166.383C95,165.645 94.699,164.938 94.163,164.416L89.113,159.498Z" style="fill-rule:nonzero;"/>
        </g>
        <g transform="matrix(1,0,0,1,-13.4314,-66.5176)">
            <path d="M102.143,137.169L95,137.169C93.422,137.169 92.143,138.415 92.143,139.952C92.143,141.488 93.422,142.734 95,142.734L102.143,142.734C103.721,142.734 105,141.488 105,139.952C105,138.415 103.721,137.169 102.143,137.169Z" style="fill-rule:nonzero;"/>
        </g>
        <g transform="matrix(1,0,0,1,-13.4314,-66.5176)">
            <path d="M89.112,120.406L94.162,115.487C94.884,114.784 95.166,113.76 94.902,112.8C94.638,111.84 93.868,111.09 92.882,110.833C91.896,110.575 90.844,110.85 90.122,111.553L85.071,116.47C84.535,116.992 84.234,117.7 84.234,118.438C84.234,119.176 84.535,119.884 85.071,120.405C86.202,121.457 87.982,121.457 89.112,120.406Z" style="fill-rule:nonzero;"/>
        </g>
    </g>
    <g transform="matrix(1,0,0,1,92.3334,17)">
        <g transform="matrix(1,0,0,1,-33.8492,-7.38961)">
            <path d="M364.575,37.341C364.575,35.413 363.809,33.563 362.446,32.2C361.082,30.837 359.233,30.071 357.305,30.071L309.749,30.071C307.821,30.071 305.971,30.837 304.608,32.2C303.244,33.563 302.478,35.413 302.478,37.341L302.478,84.897C302.478,86.825 303.244,88.674 304.608,90.038C305.971,91.401 307.821,92.167 309.749,92.167L357.305,92.167C359.233,92.167 361.082,91.401 362.446,90.038C363.809,88.674 364.575,86.825 364.575,84.897L364.575,37.341Z"/>
        </g>
        <g transform="matrix(1.10881,0,0,1.13445,-138.909,-35.4424)">
            <path d="M373.99,94.969C373.544,95.751 373.554,96.705 374.018,97.476C374.481,98.248 375.328,98.722 376.244,98.722C384.897,98.722 404.071,98.722 413.045,98.722C413.995,98.722 414.869,98.212 415.319,97.393C415.769,96.574 415.722,95.58 415.196,94.806C413.657,92.535 411.748,89.72 410.333,87.632C409.87,86.949 409.097,86.528 408.259,86.504C407.422,86.479 406.624,86.853 406.12,87.506C405.498,88.312 404.82,89.192 404.192,90.006C403.674,90.677 402.849,91.052 401.991,91.006C401.133,90.961 400.354,90.501 399.914,89.78C397.389,85.645 393.017,78.484 390.346,74.108C389.873,73.334 389.014,72.865 388.092,72.878C387.17,72.891 386.325,73.383 385.875,74.17C382.763,79.616 377.083,89.557 373.99,94.969Z" style="fill:white;"/>
        </g>
        <g transform="matrix(1,0,0,1,-5.00586,1.19187)">
            <circle cx="316.006" cy="40.499" r="6.615" style="fill:white;"/>
        </g>
    </g>
    <g transform="matrix(1.1161,0,0,1.11165,-92.544,-61.415)">
        <g transform="matrix(1,0,0,1,81.3928,34.5814)">
            <path d="M50.751,246.764C64.246,246.764 73.946,234.252 73.946,223.85C73.946,211.901 59.045,191.799 50.048,184.067C50.048,184.067 26.572,206.84 26.572,224.553C26.572,235.799 37.256,246.764 50.751,246.764Z"/>
        </g>
        <g transform="matrix(0.653656,0,0,0.653656,98.0464,112.44)">
            <path d="M49.908,184.214C47.934,186.156 26.572,207.657 26.572,224.553C26.572,235.564 36.814,246.305 49.908,246.721L49.908,184.214Z" style="fill:white;"/>
        </g>
    </g>
    <g transform="matrix(1.66604,0,0,1.66604,202.39,130.059)">
        <path d="M12.152,11.484C12.102,11.847 12.066,12.227 12.044,12.624C12.031,12.684 12.025,12.746 12.025,12.809L12.025,21.372C8.64,21.796 7.062,23.906 6.573,25.594C5.396,25.36 3.631,25.279 1.858,26.636C0.88,27.385 0.383,28.398 0.159,29.379C-0.153,30.748 0.081,32.035 0.129,32.268C0.216,32.694 0.6,33 1.045,33L25.038,33C25.507,33 25.903,32.661 25.965,32.208C25.965,32.208 26.38,29.021 24.368,26.841C24.354,26.826 24.34,26.812 24.325,26.798C22.676,25.232 20.772,25.425 19.644,25.75C18.953,24.298 17.237,21.614 13.893,21.322L13.893,13.98C16.611,13.851 18.524,13.141 19.791,11.878C21.2,10.472 21.855,8.334 21.794,5.329C21.784,4.828 21.362,4.43 20.849,4.436C18.167,4.467 16.03,5.105 14.526,6.471C14.215,6.754 13.929,7.07 13.67,7.42C13.293,5.22 12.484,3.574 11.248,2.396C9.472,0.703 6.766,-0.069 2.969,0.005C2.455,0.015 2.047,0.426 2.053,0.927C2.093,4.149 2.889,6.72 4.615,8.527C6.22,10.206 8.651,11.257 12.152,11.484ZM12.75,23.135C9.496,23.35 8.267,25.49 8.267,26.724C8.267,27.008 8.132,27.276 7.9,27.448C7.669,27.621 7.368,27.678 7.087,27.603C6.427,27.428 4.718,26.763 3.012,28.069C2.244,28.657 1.985,29.523 1.901,30.263C1.863,30.599 1.861,30.914 1.875,31.178L24.14,31.178C24.112,30.365 23.906,29.082 22.999,28.082C21.469,26.657 19.587,27.717 19.587,27.717C19.339,27.855 19.038,27.875 18.773,27.771C18.507,27.666 18.305,27.449 18.226,27.18C18.226,27.18 17.062,23.118 13.29,23.118L13.234,23.118C13.147,23.144 13.055,23.158 12.959,23.158C12.887,23.158 12.817,23.15 12.75,23.135ZM19.92,6.298C19.853,8.211 19.423,9.638 18.454,10.605C17.481,11.575 16.002,12.046 13.953,12.155C14.146,10.172 14.759,8.75 15.8,7.804C16.817,6.88 18.215,6.43 19.92,6.298ZM3.956,1.826C6.634,1.883 8.614,2.433 9.942,3.699C11.275,4.969 11.912,6.92 12.028,9.649C9.251,9.434 7.28,8.643 5.982,7.285C4.707,5.95 4.103,4.098 3.956,1.826Z"/>
    </g>
</svg>
