<?xml version="1.0" encoding="UTF-8" standalone="no"?>
<!DOCTYPE svg PUBLIC "-//W3C//DTD SVG 1.1//EN" "http://www.w3.org/Graphics/SVG/1.1/DTD/svg11.dtd">
<svg width="100%" height="100%" viewBox="0 0 190 190" version="1.1" xmlns="http://www.w3.org/2000/svg" xmlns:xlink="http://www.w3.org/1999/xlink" xml:space="preserve" xmlns:serif="http://www.serif.com/" style="fill-rule:evenodd;clip-rule:evenodd;stroke-linejoin:round;stroke-miterlimit:2;">
    <g transform="matrix(0.950201,0,0,0.950201,1.46732,1.46732)">
        <circle cx="98.5" cy="98.5" r="98.5" style="fill:rgb(251,76,32);"/>
    </g>
    <g transform="matrix(0.950201,0,0,0.950201,1.46732,1.46732)">
        <rect x="72" y="72" width="53" height="53" style="fill:none;fill-rule:nonzero;"/>
    </g>
    <g transform="matrix(2.11032,0,0,2.11032,67.6279,60.2417)">
        <path d="M12.152,11.484C12.102,11.847 12.066,12.227 12.044,12.624C12.031,12.684 12.025,12.746 12.025,12.809L12.025,21.372C8.64,21.796 7.062,23.906 6.573,25.594C5.396,25.36 3.631,25.279 1.858,26.636C0.88,27.385 0.383,28.398 0.159,29.379C-0.153,30.748 0.081,32.035 0.129,32.268C0.216,32.694 0.6,33 1.045,33L25.038,33C25.507,33 25.903,32.661 25.965,32.208C25.965,32.208 26.38,29.021 24.368,26.841C24.354,26.826 24.34,26.812 24.325,26.798C22.676,25.232 20.772,25.425 19.644,25.75C18.953,24.298 17.237,21.614 13.893,21.322L13.893,13.98C16.611,13.851 18.524,13.141 19.791,11.878C21.2,10.472 21.855,8.334 21.794,5.329C21.784,4.828 21.362,4.43 20.849,4.436C18.167,4.467 16.03,5.105 14.526,6.471C14.215,6.754 13.929,7.07 13.67,7.42C13.293,5.22 12.484,3.574 11.248,2.396C9.472,0.703 6.766,-0.069 2.969,0.005C2.455,0.015 2.047,0.426 2.053,0.927C2.093,4.149 2.889,6.72 4.615,8.527C6.22,10.206 8.651,11.257 12.152,11.484ZM12.75,23.135C9.496,23.35 8.267,25.49 8.267,26.724C8.267,27.008 8.132,27.276 7.9,27.448C7.669,27.621 7.368,27.678 7.087,27.603C6.427,27.428 4.718,26.763 3.012,28.069C2.244,28.657 1.985,29.523 1.901,30.263C1.863,30.599 1.861,30.914 1.875,31.178L24.14,31.178C24.112,30.365 23.906,29.082 22.999,28.082C21.469,26.657 19.587,27.717 19.587,27.717C19.339,27.855 19.038,27.875 18.773,27.771C18.507,27.666 18.305,27.449 18.226,27.18C18.226,27.18 17.062,23.118 13.29,23.118L13.234,23.118C13.147,23.144 13.055,23.158 12.959,23.158C12.887,23.158 12.817,23.15 12.75,23.135ZM19.92,6.298C19.853,8.211 19.423,9.638 18.454,10.605C17.481,11.575 16.002,12.046 13.953,12.155C14.146,10.172 14.759,8.75 15.8,7.804C16.817,6.88 18.215,6.43 19.92,6.298ZM3.956,1.826C6.634,1.883 8.614,2.433 9.942,3.699C11.275,4.969 11.912,6.92 12.028,9.649C9.251,9.434 7.28,8.643 5.982,7.285C4.707,5.95 4.103,4.098 3.956,1.826Z"/>
    </g>
</svg>
