<?xml version="1.0" encoding="UTF-8" standalone="no"?>
<!DOCTYPE svg PUBLIC "-//W3C//DTD SVG 1.1//EN" "http://www.w3.org/Graphics/SVG/1.1/DTD/svg11.dtd">
<svg width="100%" height="100%" viewBox="0 0 120 35" version="1.1" xmlns="http://www.w3.org/2000/svg" xmlns:xlink="http://www.w3.org/1999/xlink" xml:space="preserve" xmlns:serif="http://www.serif.com/" style="fill-rule:evenodd;clip-rule:evenodd;">
    <g transform="matrix(1,0,0,1,0.898474,1.61356)">
        <path d="M12.152,11.484C12.102,11.847 12.066,12.227 12.044,12.624C12.031,12.684 12.025,12.746 12.025,12.809L12.025,21.372C8.64,21.796 7.062,23.906 6.573,25.594C5.396,25.36 3.631,25.279 1.858,26.636C0.88,27.385 0.383,28.398 0.159,29.379C-0.153,30.748 0.081,32.035 0.129,32.268C0.216,32.694 0.6,33 1.045,33L25.038,33C25.507,33 25.903,32.661 25.965,32.208C25.965,32.208 26.38,29.021 24.368,26.841C24.354,26.826 24.34,26.812 24.325,26.798C22.676,25.232 20.772,25.425 19.644,25.75C18.953,24.298 17.237,21.614 13.893,21.322L13.893,13.98C16.611,13.851 18.524,13.141 19.791,11.878C21.2,10.472 21.855,8.334 21.794,5.329C21.784,4.828 21.362,4.43 20.849,4.436C18.167,4.467 16.03,5.105 14.526,6.471C14.215,6.754 13.929,7.07 13.67,7.42C13.293,5.22 12.484,3.574 11.248,2.396C9.472,0.703 6.766,-0.069 2.969,0.005C2.455,0.015 2.047,0.426 2.053,0.927C2.093,4.149 2.889,6.72 4.615,8.527C6.22,10.206 8.651,11.257 12.152,11.484ZM12.75,23.135C9.496,23.35 8.267,25.49 8.267,26.724C8.267,27.008 8.132,27.276 7.9,27.448C7.669,27.621 7.368,27.678 7.087,27.603C6.427,27.428 4.718,26.763 3.012,28.069C2.244,28.657 1.985,29.523 1.901,30.263C1.863,30.599 1.861,30.914 1.875,31.178L24.14,31.178C24.112,30.365 23.906,29.082 22.999,28.082C21.469,26.657 19.587,27.717 19.587,27.717C19.339,27.855 19.038,27.875 18.773,27.771C18.507,27.666 18.305,27.449 18.226,27.18C18.226,27.18 17.062,23.118 13.29,23.118C13.271,23.118 13.253,23.118 13.234,23.118C13.147,23.144 13.055,23.158 12.959,23.158C12.887,23.158 12.817,23.15 12.75,23.135ZM19.92,6.298C19.853,8.211 19.423,9.638 18.454,10.605C17.481,11.575 16.002,12.046 13.953,12.155C14.146,10.172 14.759,8.75 15.8,7.804C16.817,6.88 18.215,6.43 19.92,6.298ZM3.956,1.826C6.634,1.883 8.614,2.433 9.942,3.699C11.275,4.969 11.912,6.92 12.028,9.649C9.251,9.434 7.28,8.643 5.982,7.285C4.707,5.95 4.103,4.098 3.956,1.826Z"/>
    </g>
    <g transform="matrix(1,0,0,1,-0.0250085,1.53704)">
        <path d="M57.895,7.088L58.282,6.213L57.425,5.788C57.217,5.686 56.852,5.55 56.396,5.391C55.909,5.214 55.326,5.042 54.654,4.875C53.958,4.679 53.185,4.509 52.339,4.365C51.479,4.215 50.596,4.14 49.693,4.14C48.208,4.14 46.859,4.352 45.663,4.8L45.663,4.8L45.656,4.803C44.517,5.239 43.531,5.828 42.717,6.582C41.911,7.328 41.294,8.193 40.882,9.174C40.48,10.132 40.274,11.117 40.274,12.123C40.274,13.184 40.474,14.157 40.917,15.006L40.927,15.025L40.938,15.043C41.372,15.797 41.927,16.467 42.597,17.052L42.613,17.066L42.629,17.079C43.309,17.623 44.062,18.086 44.885,18.468L44.895,18.473C45.685,18.829 46.486,19.173 47.298,19.505L47.31,19.51L47.322,19.514C48.118,19.816 48.89,20.117 49.638,20.419L49.655,20.426L49.672,20.432C50.394,20.692 51.009,20.989 51.527,21.318L51.546,21.33L51.566,21.342C52.076,21.633 52.445,21.964 52.702,22.321L52.718,22.343L52.735,22.365C52.951,22.632 53.079,22.975 53.079,23.456C53.079,23.974 52.925,24.337 52.651,24.623L52.642,24.632L52.633,24.642C52.28,25.029 51.849,25.349 51.327,25.6C50.774,25.843 50.187,26.016 49.565,26.119L49.565,26.119L49.56,26.12C48.908,26.231 48.39,26.281 47.995,26.281C47.165,26.281 46.209,26.136 45.119,25.827C44.033,25.52 43.06,25.117 42.193,24.623L41.283,24.103L40.807,25.037L39.109,28.371L38.684,29.205L39.489,29.684C39.864,29.907 40.306,30.15 40.813,30.414L40.829,30.422C41.39,30.701 42.018,30.961 42.708,31.206L42.728,31.213L42.748,31.219C43.48,31.444 44.278,31.629 45.139,31.775L45.143,31.776C46.056,31.927 47.055,32 48.136,32C49.831,32 51.343,31.818 52.659,31.435C53.983,31.055 55.124,30.5 56.051,29.744C56.987,29 57.702,28.107 58.172,27.066C58.663,26.008 58.9,24.846 58.9,23.597C58.9,22.006 58.551,20.609 57.768,19.485C57.057,18.442 56.172,17.577 55.117,16.896C54.104,16.243 53.006,15.718 51.826,15.319C50.734,14.927 49.725,14.547 48.798,14.18C47.917,13.807 47.206,13.415 46.651,13.009C46.263,12.706 46.094,12.355 46.094,11.877C46.094,11.319 46.327,10.835 46.97,10.385C47.649,9.926 48.621,9.649 49.976,9.649C50.768,9.649 51.603,9.745 52.482,9.941L52.482,9.941L52.487,9.942C53.409,10.143 54.333,10.411 55.259,10.747L56.138,11.066L56.515,10.211L57.895,7.088ZM63.614,8.15L63.614,8.15L63.607,8.157C62.338,9.441 61.337,10.937 60.606,12.638C59.866,14.334 59.498,16.13 59.498,18.017C59.498,19.949 59.865,21.77 60.607,23.47C61.339,25.148 62.34,26.631 63.607,27.914L63.614,27.921L63.621,27.927C64.914,29.185 66.408,30.176 68.098,30.901C69.81,31.636 71.643,32 73.587,32C75.508,32 77.328,31.636 79.037,30.902C80.751,30.177 82.25,29.183 83.524,27.921C84.816,26.639 85.83,25.156 86.564,23.476C87.33,21.775 87.711,19.952 87.711,18.017C87.711,16.127 87.329,14.329 86.565,12.632C85.832,10.931 84.819,9.436 83.527,8.153C82.255,6.867 80.757,5.862 79.043,5.135C77.333,4.377 75.51,4 73.587,4C71.64,4 69.805,4.377 68.092,5.136C66.401,5.863 64.906,6.868 63.614,8.15ZM76.832,25.732L76.832,25.732L76.825,25.735C75.851,26.167 74.798,26.386 73.657,26.386C72.516,26.386 71.449,26.167 70.447,25.732C69.425,25.288 68.54,24.691 67.782,23.939C67.027,23.19 66.427,22.316 65.981,21.31C65.564,20.292 65.353,19.209 65.353,18.053C65.353,16.895 65.565,15.811 65.983,14.792C66.431,13.758 67.021,12.872 67.751,12.126C68.508,11.377 69.392,10.781 70.412,10.338C71.414,9.903 72.481,9.684 73.622,9.684C74.763,9.684 75.815,9.903 76.79,10.335L76.797,10.338C77.818,10.782 78.704,11.379 79.462,12.131C80.213,12.876 80.8,13.757 81.223,14.784L81.227,14.796L81.232,14.807C81.669,15.797 81.89,16.863 81.89,18.017C81.89,19.198 81.668,20.29 81.229,21.305L81.225,21.315C80.804,22.319 80.216,23.191 79.462,23.939L79.462,23.939L79.452,23.949C78.721,24.695 77.851,25.29 76.832,25.732ZM96.073,4.281L90.217,4.281L90.217,31.719L96.073,31.719L96.073,4.281ZM100.374,4.281L100.374,31.719L119,31.719L119,26.07L106.265,26.07L106.265,4.281L100.374,4.281Z" style="fill:none;fill-rule:nonzero;stroke:black;stroke-width:2px;"/>
    </g>
</svg>
