<?xml version="1.0" encoding="UTF-8" standalone="no"?>
<!DOCTYPE svg PUBLIC "-//W3C//DTD SVG 1.1//EN" "http://www.w3.org/Graphics/SVG/1.1/DTD/svg11.dtd">
<svg width="100%" height="100%" viewBox="0 0 124 124" version="1.1" xmlns="http://www.w3.org/2000/svg" xmlns:xlink="http://www.w3.org/1999/xlink" xml:space="preserve" xmlns:serif="http://www.serif.com/" style="fill-rule:evenodd;clip-rule:evenodd;stroke-linejoin:round;stroke-miterlimit:2;">
    <g transform="matrix(0.954085,0,0,0.954085,2.34924,0.167921)">
        <path d="M121.7,57.681L83,26.881C79,23.781 73,26.581 73,31.681L73,41.981C73,45.281 70.8,48.181 67.5,48.181L6,48.181C2.7,48.181 0,50.581 0,53.981L0,70.181C0,73.381 2.7,76.181 6,76.181L67.5,76.181C70.8,76.181 73,78.782 73,82.081L73,92.381C73,97.381 79,100.181 82.9,97.081L121.5,67.081C124.7,64.781 124.8,60.081 121.7,57.681Z" style="fill:none;fill-rule:nonzero;stroke:white;stroke-width:2.1px;"/>
    </g>
</svg>
