<?xml version="1.0" encoding="UTF-8" standalone="no"?>
<!DOCTYPE svg PUBLIC "-//W3C//DTD SVG 1.1//EN" "http://www.w3.org/Graphics/SVG/1.1/DTD/svg11.dtd">
<svg width="100%" height="100%" viewBox="0 0 84 16" version="1.1" xmlns="http://www.w3.org/2000/svg" xmlns:xlink="http://www.w3.org/1999/xlink" xml:space="preserve" xmlns:serif="http://www.serif.com/" style="fill-rule:evenodd;clip-rule:evenodd;stroke-linejoin:round;stroke-miterlimit:2;">
    <g transform="matrix(1,0,0,1,0.216741,1.16305)">
        <path d="M22.479,4.905L14.125,12.894L12.679,14.276L11.234,12.894L1.554,3.638C0.756,2.875 0.756,1.637 1.554,0.873C2.353,0.11 3.647,0.11 4.445,0.873L12.679,8.747L20.913,0.873C21.343,0.462 21.916,0.273 22.479,0.304C23.041,0.273 23.615,0.462 24.045,0.873L32.279,8.747L40.512,0.873C40.942,0.462 41.516,0.273 42.078,0.304C42.641,0.273 43.215,0.462 43.645,0.873L51.878,8.747L60.112,0.873C60.542,0.462 61.115,0.273 61.678,0.304C62.24,0.273 62.814,0.462 63.244,0.873L71.478,8.747L79.711,0.873C80.51,0.11 81.804,0.11 82.602,0.873C83.401,1.637 83.401,2.875 82.602,3.638L72.923,12.894L71.478,14.276L70.032,12.894L61.678,4.905L53.324,12.894L51.878,14.276L50.433,12.894L42.078,4.905L33.724,12.894L32.279,14.276L30.833,12.894L22.479,4.905Z" style="fill:rgb(44,172,157);"/>
    </g>
</svg>
